<?xml version="1.0" encoding="iso-8859-1"?>
<!-- Generator: Adobe Illustrator 19.0.0, SVG Export Plug-In . SVG Version: 6.00 Build 0)  -->
<svg version="1.1" id="Layer_1" xmlns="http://www.w3.org/2000/svg" xmlns:xlink="http://www.w3.org/1999/xlink" x="0px" y="0px"
	 viewBox="0 0 489.5 489.5" style="enable-background:new 0 0 489.5 489.5;" xml:space="preserve">
<g>
	<path d="M455.125,281.2c-22.9-22.9-75.5-53.2-140.6-21.2v-76.7c0-36-24-66.3-56.2-75.9V20.8c0-11.5-9.4-20.8-20.8-20.8h-161.5
		c-11.5,0-20.8,9.4-20.8,20.8v86.8c-31.7,10-55.2,40-55.2,75.6v227.1c0,43.7,35.4,79.2,78.1,79.2h158.3c27-0.9,49.2-13.8,63.5-27.9
		c71.4,49,132.3,11.2,155.2-11.7C500.925,403,500.925,328,455.125,281.2z M409.525,297.7l-106.2,107c-17.2-29.8-13.1-69.1,12.2-94.4
		C352.025,273.8,399.525,290.1,409.525,297.7z M217.625,40.6v63.5h-120.8V40.6H217.625z M236.425,448.8h-158.3
		c-20.8,0-37.5-17.7-37.5-38.5V183.2c0-21.9,16.7-38.5,37.5-38.5h157.3c20.8,0,37.5,17.7,37.5,38.5v114.5
		c-27.4,40.3-27.8,93.5-1,134.1C266.925,437.3,249.625,449.3,236.425,448.8z M425.925,420.7c-16.6,16.6-54.5,35.4-93.9,12.6
		l106.4-106.4C455.325,356.7,451.125,395.6,425.925,420.7z"/>
</g>
<g>
</g>
<g>
</g>
<g>
</g>
<g>
</g>
<g>
</g>
<g>
</g>
<g>
</g>
<g>
</g>
<g>
</g>
<g>
</g>
<g>
</g>
<g>
</g>
<g>
</g>
<g>
</g>
<g>
</g>
</svg>
